HIERARCHY
ROOT Hips
{
    OFFSET 0.000000 0.000000 0.000000
    CHANNELS 6 Xposition Yposition Zposition Zrotation Xrotation Yrotation
    JOINT Spine
    {
        OFFSET -0.000000 14.517291 0.000000
        CHANNELS 3 Zrotation Xrotation Yrotation
        JOINT Spine1
        {
            OFFSET -0.000000 37.558300 0.000000
            CHANNELS 3 Zrotation Xrotation Yrotation
            JOINT Neck
            {
                OFFSET -0.000000 37.404057 3.400369
                CHANNELS 3 Zrotation Xrotation Yrotation
                JOINT Head
                {
                    OFFSET -0.000000 24.785618 -3.540803
                    CHANNELS 3 Zrotation Xrotation Yrotation
                    End Site
                    {
                        OFFSET -0.000000 35.408028 0.000000
                    }
                }
            }
            JOINT LeftShoulder
            {
                OFFSET 6.992933 33.973492 -0.192664
                CHANNELS 3 Zrotation Xrotation Yrotation
                JOINT LeftArm
                {
                    OFFSET 21.527611 0.000000 0.000000
                    CHANNELS 3 Zrotation Xrotation Yrotation
                    JOINT LeftForeArm
                    {
                        OFFSET 56.353916 0.000000 0.000000
                        CHANNELS 3 Zrotation Xrotation Yrotation
                        JOINT LeftHand
                        {
                            OFFSET 47.774071 0.000000 0.000000
                            CHANNELS 3 Zrotation Xrotation Yrotation
                            End Site
                            {
                                OFFSET 26.556021 0.000000 0.000000
                            }
                        }
                    }
                }
            }
            JOINT RightShoulder
            {
                OFFSET -7.065357 33.973492 -0.192664
                CHANNELS 3 Zrotation Xrotation Yrotation
                JOINT RightArm
                {
                    OFFSET -21.527611 0.000000 0.000000
                    CHANNELS 3 Zrotation Xrotation Yrotation
                    JOINT RightForeArm
                    {
                        OFFSET -56.353916 0.000000 0.000000
                        CHANNELS 3 Zrotation Xrotation Yrotation
                        JOINT RightHand
                        {
                            OFFSET -47.774071 0.000000 0.000000
                            CHANNELS 3 Zrotation Xrotation Yrotation
                            End Site
                            {
                                OFFSET -26.556021 0.000000 0.000000
                            }
                        }
                    }
                }
            }
        }
    }
    JOINT LeftUpLeg
    {
        OFFSET 17.704014 0.000000 0.000000
        CHANNELS 3 Zrotation Xrotation Yrotation
        JOINT LeftLeg
        {
            OFFSET -0.000000 -81.181816 0.000000
            CHANNELS 3 Zrotation Xrotation Yrotation
            JOINT LeftFoot
            {
                OFFSET -0.000000 -62.821102 0.000000
                CHANNELS 3 Zrotation Xrotation Yrotation
                JOINT LeftToeBase
                {
                    OFFSET -0.000000 -11.507608 26.556021
                    CHANNELS 3 Zrotation Xrotation Yrotation
                    End Site
                    {
                        OFFSET -0.000000 0.000000 7.081605
                    }
                }
            }
        }
    }
    JOINT RightUpLeg
    {
        OFFSET -17.704014 0.000000 0.000000
        CHANNELS 3 Zrotation Xrotation Yrotation
        JOINT RightLeg
        {
            OFFSET -0.000000 -81.181816 0.000000
            CHANNELS 3 Zrotation Xrotation Yrotation
            JOINT RightFoot
            {
                OFFSET -0.000000 -62.821102 0.000000
                CHANNELS 3 Zrotation Xrotation Yrotation
                JOINT RightToeBase
                {
                    OFFSET -0.000000 -11.507608 26.556021
                    CHANNELS 3 Zrotation Xrotation Yrotation
                    End Site
                    {
                        OFFSET -0.000000 0.000000 7.081605
                    }
                }
            }
        }
    }
}
MOTION
Frames:    8
Frame Time:    0.008333
9.094344    158.281738    -85.560471    -2.119342    1.222459    33.047298    -1.079051    0.432446    -10.559750    -11.951112    -3.892207    -3.929034    6.733170    11.590178    -9.031348    15.934329    -7.416436    -6.420739    12.467017    -3.713664    -18.540728    -19.798752    -31.915110    -29.911215    -15.625210    -41.730610    -85.688133    -40.001740    -39.934856    -44.140812    -19.160286    0.528496    -12.322828    19.846598    15.649265    10.757901    18.428188    -22.262314    8.892389    -33.975975    -43.279839    67.688240    17.643692    0.180730    14.602490    -8.141390    21.123661    -14.756718    7.051037    -19.717127    44.484547    0.000000    0.000000    0.000000    -12.552679    -28.183552    -5.778753    10.786730    22.632887    -10.510888    0.918031    9.840553    -17.943438    0.000000    0.000000    0.000000    
9.068878    158.359116    -85.473373    -2.126366    1.282583    32.805641    -1.082180    0.424631    -10.473152    -11.961632    -3.986237    -3.910382    6.772666    11.548942    -8.977357    15.888392    -7.352132    -6.386810    12.493507    -3.734379    -18.433582    -19.845066    -31.913713    -29.927490    -15.674955    -41.669285    -85.735725    -39.950005    -39.952774    -44.092079    -19.162861    0.511819    -12.240935    20.695385    15.825734    11.084861    18.260983    -22.334793    8.924513    -34.012413    -43.292896    67.514824    17.454109    0.351348    14.493968    -7.931981    20.845955    -15.018970    7.184282    -19.969969    44.422813    0.000000    0.000000    0.000000    -12.467235    -28.199778    -5.768753    10.745237    22.513773    -10.423727    1.048801    9.820247    -17.898720    0.000000    0.000000    0.000000    
9.034584    158.435318    -85.399307    -2.144181    1.364390    32.570751    -1.099804    0.395056    -10.387442    -11.947861    -4.074727    -3.890535    6.754920    11.484046    -8.930436    15.885981    -7.255513    -6.354600    12.520828    -3.754849    -18.346478    -19.885906    -31.910278    -29.924202    -15.742838    -41.605282    -85.810799    -39.879559    -39.994598    -44.040325    -19.165020    0.529166    -12.144309    20.650934    15.712245    11.154410    18.251717    -22.324585    8.895463    -34.117126    -43.295982    67.387016    17.285856    0.475407    14.301158    -7.788737    20.602255    -15.284888    7.373822    -20.157969    44.360500    0.000000    0.000000    0.000000    -12.379918    -28.246874    -5.769192    10.682273    22.402153    -10.310722    1.170428    9.817823    -17.840746    0.000000    0.000000    0.000000    
8.999048    158.512344    -85.326591    -2.172977    1.464915    32.341621    -1.094526    0.346706    -10.287366    -12.007929    -4.171727    -3.869405    6.819044    11.456865    -8.893815    15.868493    -7.221933    -6.329041    12.581719    -3.775253    -18.297453    -19.931215    -31.904984    -29.927320    -15.743695    -41.553482    -85.852470    -39.866005    -39.956367    -44.037148    -19.077793    0.534410    -12.075471    20.572237    15.658098    11.222443    18.231358    -22.335402    8.862944    -34.123386    -43.286297    67.337509    17.129971    0.574189    13.927597    -7.724990    20.323181    -15.416165    7.474330    -20.362345    44.259033    0.000000    0.000000    0.000000    -12.292870    -28.311108    -5.730648    10.638281    22.271996    -10.281476    1.240899    9.840991    -17.745140    0.000000    0.000000    0.000000    
8.963062    158.585663    -85.251427    -2.208121    1.547078    32.118896    -1.087192    0.312849    -10.194813    -12.006206    -4.267744    -3.848518    6.757722    11.430040    -8.871653    15.943935    -7.170192    -6.296241    12.596631    -3.763088    -18.217283    -19.951542    -31.883757    -29.939571    -15.762324    -41.536919    -85.910828    -39.886086    -39.961388    -44.026295    -19.083805    0.549926    -12.002995    19.652946    15.390326    11.038552    18.231358    -22.335402    8.862944    -34.123386    -43.286297    67.337509    16.980448    0.655503    13.605065    -7.591549    20.104204    -15.685805    7.531332    -20.571386    44.257759    0.000000    0.000000    0.000000    -12.194210    -28.357128    -5.680912    10.599758    22.136261    -10.228589    1.301443    9.875516    -17.634687    0.000000    0.000000    0.000000    
8.929064    158.653839    -85.183456    -2.244048    1.638139    31.903339    -1.122598    0.274675    -10.118685    -11.889570    -4.359612    -3.828294    6.617849    11.411257    -8.826078    15.994205    -7.146937    -6.236159    12.520883    -3.760831    -18.116051    -19.906414    -31.786074    -29.919237    -15.753806    -41.610249    -85.973366    -39.948437    -40.013138    -44.048595    -19.209290    0.535933    -11.873237    20.568226    15.672949    11.283077    18.182117    -22.428341    8.900084    -34.112949    -43.361172    67.355469    16.835089    0.718072    13.139527    -7.519289    19.876709    -15.751463    7.600409    -20.740187    44.142662    0.000000    0.000000    0.000000    -12.108369    -28.408493    -5.625054    10.581662    21.986055    -10.194467    1.307494    9.944639    -17.527557    0.000000    0.000000    0.000000    
8.902164    158.720901    -85.120705    -2.280139    1.733288    31.692652    -1.076233    0.255387    -10.039875    -11.938582    -4.463845    -3.814740    6.570606    11.325541    -8.798294    16.037739    -7.095612    -6.208247    12.555657    -3.763627    -17.981899    -19.916588    -31.688129    -29.953596    -15.697703    -41.682594    -86.027969    -40.004639    -40.017979    -44.104195    -19.223722    0.502487    -11.813403    20.567734    15.618342    11.301661    18.204607    -22.407585    8.894360    -34.037910    -43.323021    67.412231    16.699163    0.772488    12.621627    -7.493770    19.644018    -15.795411    7.766369    -20.813957    44.066349    0.000000    0.000000    0.000000    -12.018951    -28.466558    -5.590307    10.533203    21.846998    -10.117850    1.286160    10.037923    -17.395599    0.000000    0.000000    0.000000    
8.876022    158.785706    -85.055542    -2.322805    1.811854    31.484877    -1.067257    0.176512    -9.899934    -11.904063    -4.440869    -3.764100    6.466555    11.257896    -8.812217    16.111416    -7.114275    -6.204354    12.488589    -3.830806    -18.022306    -19.845654    -31.696653    -29.864498    -15.695809    -41.638531    -86.089745    -40.004932    -39.980202    -44.115067    -19.285694    0.447952    -11.826471    20.592302    15.569964    11.310279    18.211035    -22.368484    8.871988    -33.990311    -43.286987    67.481911    16.586061    0.868760    11.794916    -7.577085    19.321211    -15.622069    7.906088    -20.900246    44.063183    0.000000    0.000000    0.000000    -11.898251    -28.500547    -5.568408    10.449815    21.677813    -10.007908    1.246900    10.164758    -17.255520    0.000000    0.000000    0.000000    
